<svg xmlns="http://www.w3.org/2000/svg" width="655" height="153" fill="none"><path fill="#173A58" d="M651.354 94.566a24 24 0 0 0-1.298-2.164c-2.035-3.147-4.641-5.478-7.828-6.992-3.186-1.515-6.628-2.272-10.316-2.272-3.442 0-6.481.57-9.127 1.73-2.645 1.161-4.897 2.695-6.736 4.623-2.419 2.439-4.229 5.38-5.409 8.822-.649 1.878-1.102 3.855-1.397 5.92 0 0-.236 2.419-.295 3.235-.029.522-.088 1.564-.088 2.075 0 .876.118 2.636.187 3.511.206 2.774.845 5.36 1.77 7.77 1.298 3.412 3.196 6.333 5.674 8.772a23.7 23.7 0 0 0 6.737 4.484c2.508 1.122 5.488 1.692 8.93 1.692 3.186 0 6.245-.541 9.175-1.633 2.931-1.091 5.448-2.881 7.553-5.389.954-1.16 1.869-2.616 2.724-4.386.856-1.76 1.357-3.383 1.485-4.868h-11.467c-.452 1.662-1.249 3.068-2.39 4.229-.894.905-1.898 1.524-3.009 1.878s-2.527.531-4.258.531-3.069-.305-4.249-.924a13.8 13.8 0 0 1-3.107-2.174c-.138-.128-.364-.344-.561-.472 5.606-3.53 29.956-18.911 29.956-18.911-.217-1.948-.433-3.295-.915-4.83-.029-.117-.078-.235-.108-.363a10 10 0 0 0-.187-.501 22 22 0 0 0-1.357-3.167l-.108-.226zm-30.644 9.864c.069-1.672.482-3.118.866-4.347q.575-1.832 1.918-3.472c.894-1.16 2.045-2.085 3.442-2.793 1.396-.708 3.029-1.062 4.877-1.052 1.721 0 3.206.265 4.446.777 1.239.521 2.271 1.22 3.107 2.124 1.151 1.269 1.957 2.803 2.459 4.573l-21.233 13.286s-.068-2.488-.068-4.523c0-2.036.196-4.573.196-4.573zm-26.789-8.94c-2.625-1.436-5.536-2.35-8.733-2.35-4.228 0-7.818 1.8-7.818 4.986 0 3.393 5.704 4.346 11.624 6.363 6.875 2.33 14.27 5.831 14.27 15.587s-9.726 15.696-19.659 15.696c-7.504 0-14.683-2.331-20.505-7.209l-1.701-1.426 9.057-5.694c3.718 2.419 8.32 3.934 12.923 3.934 4.121 0 7.71-2.124 7.71-5.301 0-5.409-10.041-5.724-17.545-9.441-4.543-2.232-8.349-5.724-8.349-12.195 0-10.178 9.51-15.695 19.128-15.695 6.874 0 13.001 2.547 16.807 5.615l1.623 1.564-8.851 5.566z"/><path fill="#00A756" d="M524.647 120.932v-.777c0-8.182 6.609-14.811 14.752-14.811s14.732 6.648 14.732 14.83v.777c0 8.183-6.609 14.811-14.752 14.811-8.142 0-14.732-6.648-14.732-14.83"/><path fill="#173A58" d="M417.728 51.796c-4.485 2.173-7.711 5.694-9.658 10.591l-1.77-12.716-17.181 3.413-.069 81.311 20.426.02.03-42.701c0-6.845 1.849-12.55 5.527-17.102 3.678-4.564 9.087-6.835 16.217-6.835 2.163 0 4.484.275 6.973.826V49.042a42 42 0 0 0-6.314-.492 32.2 32.2 0 0 0-14.191 3.255zm-42.013 66.943c-1.731 0-2.95-.413-3.649-1.22-.708-.816-1.052-2.203-1.052-4.16l.02-31.45c0-2.823-.128-5.704-.403-8.635a30.9 30.9 0 0 0-2.016-8.477c-2.479-6.412-6.56-10.897-12.225-13.454-5.674-2.557-12.126-3.835-19.364-3.845-4.75 0-9.185.54-13.296 1.623-4.111 1.081-7.73 2.733-10.867 4.956-3.137 2.233-5.655 5.075-7.543 8.546-1.898 3.472-3 7.602-3.334 12.382h19.61c.216-3.904 1.652-6.884 4.298-8.95 2.655-2.055 6.353-3.088 11.113-3.088 5.723 0 9.539 1.23 11.427 3.678 1.888 2.45 2.833 5.675 2.833 9.697v5.213l-24.803 1.77c-4.003.324-7.73 1.111-11.192 2.35-3.461 1.25-6.49 3.01-9.077 5.291a24.3 24.3 0 0 0-6.087 8.143c-1.466 3.157-2.193 6.737-2.203 10.759 0 3.481.649 6.815 1.937 10.031a24.2 24.2 0 0 0 5.753 8.477c2.538 2.449 5.694 4.406 9.481 5.872 3.786 1.475 8.212 2.202 13.286 2.212 6.048 0 11.349-1.239 15.883-3.737 4.543-2.498 7.789-5.478 9.736-8.959q.487 4.735 4.042 8.32c2.37 2.39 5.773 3.59 10.208 3.59 2.488 0 4.347-.187 5.596-.561 1.239-.384 2.724-.944 4.455-1.711v-14.988c-.207.108-.472.167-.797.167-.324.108-.924.167-1.78.158zm-24.468-18.115c0 6.303-2.006 11.113-6.009 14.417-4.003 3.314-9.195 4.966-15.568 4.956q-4.705 0-8.349-2.861c-2.429-1.898-3.639-4.485-3.639-7.74 0-3.472 1.249-6.137 3.737-7.986s5.291-2.871 8.428-3.088l21.4-1.612zm-65.143 16.58c-3.462 0-5.675-.737-6.648-2.202-.974-1.466-1.456-3.442-1.456-5.95l.079-92.572-20.436 5.665-.069 90.3c0 8.044 2.095 13.856 6.314 17.446 4.209 3.589 9.775 5.389 16.689 5.389 2.055 0 3.54-.078 4.455-.246s2.409-.462 4.455-.895v-17.112c-.531 0-1.013.03-1.446.079-.432.059-1.081.079-1.947.079zm-67.003-34.902-.009-.03 3.294-3.58 5.291-5.831.049.04 21.538-23.358-25.452-.02-31.962 34.353.049-67.307-20.269 6.972-.088 110.677 20.269.02.019-22.324 13.464-14.664.098.148 23.544 36.869 23.504.02-33.899-51.356zm-66.746-26.405c-2.429-2.666-5.399-4.75-8.91-6.285-3.511-1.524-7.533-2.291-12.077-2.291-4.858 0-9.588 1.052-14.191 3.167-4.592 2.114-8.133 5.399-10.621 9.844l-1.455-10.916-17.024 5.615-.059 79.118h20.259l.03-34.538c0-3.59.108-7.465.334-11.654.216-4.18 1.033-7.848 2.439-10.995s3.304-5.724 5.674-7.74c2.38-2.006 5.35-3.01 8.92-3.01 5.399 0 9.077 1.417 11.025 4.25 1.947 2.832 2.911 6.736 2.901 11.732l-.04 51.985h20.259l.05-56.538c0-4.347-.64-8.39-1.938-12.146-1.298-3.747-3.157-6.953-5.586-9.618zM72.076 66.813a43 43 0 0 0-2.203-3.649c-3.452-5.32-7.887-9.264-13.276-11.82-5.4-2.558-11.241-3.836-17.505-3.846-5.842 0-10.995.974-15.48 2.92-4.484 1.948-8.3 4.554-11.428 7.81-4.11 4.13-7.169 9.096-9.175 14.908-1.102 3.177-1.859 6.52-2.36 10.012 0 0-.404 4.09-.492 5.458-.06.875-.157 2.626-.157 3.51 0 1.486.196 4.456.304 5.931.354 4.681 1.436 9.067 3 13.139 2.213 5.763 5.419 10.709 9.638 14.84 3.343 3.157 7.15 5.684 11.427 7.592 4.268 1.898 9.313 2.862 15.155 2.862 5.4 0 10.592-.915 15.568-2.754q7.462-2.759 12.814-9.116 2.435-2.933 4.632-7.415c1.466-2.98 2.302-5.734 2.518-8.232H55.604c-.758 2.813-2.115 5.203-4.062 7.15-1.515 1.524-3.216 2.576-5.104 3.176s-4.298.895-7.219.895c-2.92 0-5.212-.521-7.208-1.554s-3.757-2.252-5.272-3.668c-.226-.216-.62-.58-.944-.796 9.5-5.96 50.825-31.972 50.825-31.972-.364-3.285-.728-5.576-1.544-8.153-.06-.206-.128-.403-.187-.61-.089-.275-.197-.56-.305-.845-.61-1.8-1.367-3.59-2.291-5.36l-.187-.394zM20.091 83.492c.108-2.823.817-5.281 1.466-7.337s1.73-4.012 3.245-5.86c1.515-1.948 3.462-3.531 5.842-4.721s5.133-1.79 8.27-1.79c2.921 0 5.43.442 7.534 1.308 2.104.875 3.865 2.065 5.261 3.59 1.947 2.153 3.324 4.74 4.18 7.73l-36.014 22.47s-.118-4.208-.118-7.65.334-7.74.334-7.74m494.427-16.679a43 43 0 0 0-2.203-3.649c-3.452-5.32-7.887-9.264-13.276-11.82-5.399-2.558-11.241-3.836-17.506-3.846-5.841 0-10.995.974-15.479 2.92-4.485 1.948-8.3 4.554-11.428 7.81-4.11 4.13-7.169 9.096-9.175 14.908-1.102 3.177-1.859 6.52-2.36 10.012 0 0-.404 4.09-.492 5.458-.059.875-.158 2.636-.158 3.51 0 1.486.197 4.456.305 5.931.354 4.681 1.436 9.067 3 13.139 2.213 5.763 5.419 10.709 9.638 14.84 3.343 3.157 7.149 5.684 11.427 7.592 4.268 1.898 9.313 2.862 15.155 2.862 5.399 0 10.592-.915 15.568-2.754s9.244-4.878 12.814-9.116q2.435-2.933 4.632-7.415c1.466-2.98 2.302-5.734 2.518-8.232h-19.453c-.757 2.813-2.114 5.203-4.061 7.15-1.515 1.524-3.216 2.576-5.104 3.176s-4.298.895-7.219.895-5.212-.521-7.208-1.554-3.757-2.252-5.272-3.668c-.226-.216-.619-.58-.944-.796 9.5-5.96 50.825-31.972 50.825-31.972-.364-3.285-.728-5.576-1.544-8.153-.059-.206-.128-.403-.187-.61-.089-.275-.197-.56-.305-.845a37.6 37.6 0 0 0-2.292-5.36l-.186-.394zm-51.975 16.679c.108-2.823.816-5.281 1.465-7.337.649-2.065 1.731-4.012 3.246-5.86 1.514-1.948 3.461-3.531 5.841-4.721s5.134-1.79 8.271-1.79c2.921 0 5.429.442 7.533 1.308 2.105.875 3.865 2.065 5.262 3.59 1.947 2.153 3.324 4.74 4.179 7.73l-36.013 22.47s-.118-4.208-.118-7.65.334-7.74.334-7.74"/></svg>